<svg width="26" height="26" viewBox="0 0 26 26" fill="none" xmlns="http://www.w3.org/2000/svg">
<path d="M7.8 20.8C6.37 20.8 5.213 21.97 5.213 23.4C5.213 24.83 6.37 26 7.8 26C9.23 26 10.4 24.83 10.4 23.4C10.4 21.97 9.23 20.8 7.8 20.8ZM0 0V2.6H2.6L7.28 12.467L5.525 15.652C5.317 16.016 5.2 16.445 5.2 16.9C5.2 18.33 6.37 19.5 7.8 19.5H23.4V16.9H8.346C8.164 16.9 8.021 16.757 8.021 16.575L8.06 16.419L9.23 14.3H18.915C19.89 14.3 20.748 13.767 21.19 12.961L25.844 4.524C25.948 4.342 26 4.121 26 3.9C26 3.185 25.415 2.6 24.7 2.6H5.473L4.251 0H0ZM20.8 20.8C19.37 20.8 18.213 21.97 18.213 23.4C18.213 24.83 19.37 26 20.8 26C22.23 26 23.4 24.83 23.4 23.4C23.4 21.97 22.23 20.8 20.8 20.8Z" fill="black"/>
</svg>
