<svg width="26" height="26" viewBox="0 0 26 26" fill="none" xmlns="http://www.w3.org/2000/svg">
<path fill-rule="evenodd" clip-rule="evenodd" d="M13 0C5.8203 0 0 5.8203 0 13C0 20.1797 5.8203 26 13 26C20.1797 26 26 20.1797 26 13C26 5.8203 20.1797 0 13 0ZM10.1143 6.04229C10.861 6.00831 11.0996 6 13.0007 6H12.9985C14.9002 6 15.1379 6.00831 15.8845 6.04229C16.6298 6.07642 17.1387 6.1944 17.585 6.3675C18.0458 6.54615 18.4352 6.78531 18.8246 7.17469C19.214 7.56377 19.4531 7.95431 19.6325 8.41471C19.8046 8.85979 19.9227 9.36846 19.9577 10.1137C19.9912 10.8603 20 11.0989 20 13C20 14.9011 19.9912 15.1391 19.9577 15.8858C19.9227 16.6307 19.8046 17.1395 19.6325 17.5847C19.4531 18.045 19.214 18.4355 18.8246 18.8246C18.4356 19.214 18.0457 19.4537 17.5854 19.6325C17.14 19.8056 16.6308 19.9236 15.8856 19.9577C15.1389 19.9917 14.901 20 12.9998 20C11.0988 20 10.8604 19.9917 10.1137 19.9577C9.36864 19.9236 8.85982 19.8056 8.41444 19.6325C7.95433 19.4537 7.56379 19.214 7.17485 18.8246C6.78561 18.4355 6.54644 18.045 6.3675 17.5846C6.19454 17.1395 6.07656 16.6308 6.04229 15.8856C6.00846 15.1389 6 14.9011 6 13C6 11.0989 6.00875 10.8602 6.04215 10.1135C6.07569 9.3686 6.19381 8.85979 6.36736 8.41456C6.54673 7.95431 6.7859 7.56377 7.17528 7.17469C7.56437 6.78546 7.95492 6.54629 8.41532 6.3675C8.8604 6.1944 9.36908 6.07642 10.1143 6.04229Z" fill="#111111"/>
<path fill-rule="evenodd" clip-rule="evenodd" d="M12.2738 7.00161H12.2765L12.5001 7.00168C14.2914 7.00168 14.5037 7.00811 15.2111 7.04026C15.8652 7.07018 16.2203 7.17949 16.4568 7.27133C16.7699 7.39295 16.9931 7.53833 17.2278 7.77318C17.4626 8.00803 17.6079 8.2317 17.7298 8.54483C17.8217 8.78107 17.9311 9.13614 17.9609 9.79036C17.993 10.4977 18 10.7102 18 12.5009C18 14.2916 17.993 14.5041 17.9609 15.2115C17.931 15.8657 17.8217 16.2207 17.7298 16.457C17.6082 16.7701 17.4626 16.9931 17.2278 17.2278C16.9929 17.4626 16.77 17.608 16.4568 17.7296C16.2205 17.8219 15.8652 17.9309 15.2111 17.9609C14.5039 17.993 14.2914 18 12.5001 18C10.7086 18 10.4963 17.993 9.78903 17.9609C9.13489 17.9307 8.77987 17.8213 8.54323 17.7295C8.23014 17.6079 8.00651 17.4625 7.77169 17.2277C7.53687 16.9928 7.3915 16.7697 7.26962 16.4564C7.17779 16.2202 7.06835 15.8651 7.03858 15.2109C7.00643 14.5036 7 14.2911 7 12.4992C7 10.7074 7.00643 10.496 7.03858 9.78869C7.06849 9.13447 7.17779 8.7794 7.26962 8.54287C7.39122 8.22974 7.53687 8.00607 7.77169 7.77123C8.00651 7.53638 8.23014 7.391 8.54323 7.2691C8.77973 7.17684 9.13489 7.0678 9.78903 7.03774C10.4079 7.00979 10.6478 7.0014 11.8982 7V7.00168C12.0143 7.0015 12.1392 7.00155 12.2738 7.00161ZM16 8.00035C15.4479 8.00035 15 8.44774 15 9C15 9.55208 15.4479 10 16 10C16.5521 10 17 9.55208 17 9C17 8.44792 16.5521 8 16 8V8.00035ZM9 12.5004C9 10.5673 10.5672 9.00008 12.5001 9C14.4332 9 16 10.5673 16 12.5004C16 14.4334 14.4333 16 12.5003 16C10.5672 16 9 14.4334 9 12.5004Z" fill="#111111"/>
<path fill-rule="evenodd" clip-rule="evenodd" d="M13.5 11C14.8806 11 16 12.1192 16 13.5C16 14.8806 14.8806 16 13.5 16C12.1192 16 11 14.8806 11 13.5C11 12.1192 12.1192 11 13.5 11V11Z" fill="#111111"/>
</svg>
