<svg width="26" height="26" viewBox="0 0 26 26" fill="none" xmlns="http://www.w3.org/2000/svg">
<path fill-rule="evenodd" clip-rule="evenodd" d="M13 0C5.8203 0 0 5.8203 0 13C0 20.1797 5.8203 26 13 26C20.1797 26 26 20.1797 26 13C26 5.8203 20.1797 0 13 0ZM6 11H9V20H6V11ZM9 8.49948C8.98269 7.64831 8.42091 7 7.50865 7C6.5964 7 6 7.64831 6 8.49948C6 9.33303 6.57877 10 7.47404 10H7.49108C8.42091 10 9 9.33303 9 8.49948ZM16.6057 11C18.5456 11 20 12.2571 20 14.958L19.9999 19.9998H17.0519V15.2954C17.0519 14.1137 16.6253 13.3074 15.5581 13.3074C14.7437 13.3074 14.2586 13.851 14.0455 14.376C13.9675 14.5641 13.9484 14.8263 13.9484 15.0891V20H11C11 20 11.0389 12.0318 11 11.2067H13.9484V12.4522C14.3397 11.8535 15.0405 11 16.6057 11Z" fill="#111111"/>
</svg>
