<svg width="90" height="20" viewBox="0 0 90 20" fill="none" xmlns="http://www.w3.org/2000/svg">
<path d="M6.76521 19.7245H0V0.266026H6.82107C8.74071 0.266026 10.3931 0.655576 11.7785 1.43468C13.1638 2.20744 14.2293 3.31904 14.9748 4.76962C15.7264 6.2201 16.1023 7.95567 16.1023 9.9763C16.1023 12.0032 15.7264 13.7451 14.9748 15.2019C14.2293 16.6588 13.1576 17.7768 11.7598 18.5559C10.3683 19.335 8.70339 19.7245 6.76521 19.7245ZM4.0349 16.1995H6.59744C7.79021 16.1995 8.79345 15.9842 9.60734 15.5535C10.4273 15.1164 11.0424 14.4419 11.4523 13.5297C11.8686 12.6113 12.0767 11.4268 12.0767 9.9763C12.0767 8.53842 11.8686 7.36342 11.4523 6.45132C11.0424 5.53922 10.4305 4.86775 9.61665 4.43707C8.80285 4.00631 7.79952 3.79097 6.60675 3.79097H4.0349V16.1995ZM30.879 0.266026H34.9139V12.9027C34.9139 14.3215 34.5815 15.563 33.9168 16.6271C33.2583 17.6913 32.3358 18.521 31.1492 19.1165C29.9627 19.7055 28.5804 20 27.0025 20C25.4184 20 24.0331 19.7055 22.8465 19.1165C21.66 18.521 20.7374 17.6913 20.0789 16.6271C19.4204 15.563 19.0912 14.3215 19.0912 12.9027V0.266026H23.1261V12.5511C23.1261 13.2922 23.2844 13.9509 23.6013 14.5273C23.9243 15.1038 24.3778 15.5566 24.9617 15.8861C25.5457 16.2154 26.226 16.3801 27.0025 16.3801C27.7853 16.3801 28.4656 16.2154 29.0433 15.8861C29.6272 15.5566 30.0776 15.1038 30.3944 14.5273C30.7174 13.9509 30.879 13.2922 30.879 12.5511V0.266026ZM38.2337 19.7245V0.266026H42.2689V8.84559H42.5203L49.3878 0.266026H54.2237L47.1421 8.97867L54.3083 19.7245H49.4809L44.253 11.7245L42.2689 14.1948V19.7245H38.2337ZM59.6149 19.7245H55.2911L61.8792 0.266026H67.0791L73.6579 19.7245H69.3341L64.5532 4.71257H64.4042L59.6149 19.7245ZM59.3449 12.076H69.5576V15.2874H59.3449V12.076ZM85.8717 5.86227C85.7972 5.09577 85.4773 4.50042 84.9118 4.07605C84.3464 3.65159 83.5795 3.43944 82.6103 3.43944C81.9517 3.43944 81.3956 3.53447 80.9427 3.72443C80.489 3.90818 80.1411 4.16469 79.899 4.49404C79.6628 4.82347 79.5443 5.19719 79.5443 5.61517C79.5325 5.9636 79.6036 6.26766 79.7593 6.52736C79.9202 6.78706 80.1411 7.01189 80.4204 7.20194C80.6998 7.3856 81.0231 7.54709 81.3896 7.68647C81.7562 7.81947 82.1472 7.93349 82.5637 8.02851L84.2787 8.44659C85.1108 8.63663 85.8751 8.88995 86.5709 9.2067C87.2667 9.52336 87.8694 9.91296 88.3782 10.3753C88.8877 10.8377 89.2822 11.3824 89.5624 12.0095C89.8476 12.6366 89.9941 13.3555 90 14.1663C89.9941 15.3571 89.6953 16.3896 89.1053 17.2637C88.5212 18.1314 87.6764 18.806 86.5709 19.2874C85.4713 19.7625 84.1449 20 82.5916 20C81.0511 20 79.7094 19.7594 78.5658 19.2779C77.429 18.7965 76.541 18.084 75.9011 17.1402C75.2671 16.19 74.9353 15.015 74.9039 13.6152H78.8087C78.8519 14.2676 79.0356 14.8124 79.3581 15.2494C79.6874 15.6801 80.1259 16.0064 80.6718 16.2281C81.2254 16.4434 81.8493 16.5511 82.5451 16.5511C83.2282 16.5511 83.8216 16.4497 84.3252 16.2471C84.8348 16.0443 85.2293 15.7625 85.5086 15.4014C85.7879 15.0404 85.9276 14.6255 85.9276 14.1568C85.9276 13.7197 85.8006 13.3524 85.5458 13.0546C85.297 12.757 84.9305 12.5036 84.4463 12.2945C83.968 12.0855 83.3806 11.8955 82.6848 11.7245L80.6067 11.1924C78.9984 10.7934 77.7278 10.1695 76.7958 9.32071C75.8638 8.47187 75.4008 7.32856 75.4076 5.89075C75.4008 4.71257 75.7089 3.68326 76.3294 2.80284C76.9575 1.92241 77.8175 1.23515 78.9112 0.74109C80.004 0.24703 81.2466 0 82.6382 0C84.0543 0 85.2911 0.24703 86.3475 0.74109C87.4098 1.23515 88.2359 1.92241 88.8259 2.80284C89.4159 3.68326 89.7207 4.70307 89.7393 5.86227H85.8717Z" fill="#111111"/>
</svg>
