<svg width="23" height="23" viewBox="0 0 23 23" fill="none" xmlns="http://www.w3.org/2000/svg">
<path d="M22.6884 21.01L18.3959 16.7621C21.6542 12.7055 21.3476 6.73542 17.6301 3.02329C15.6751 1.07154 13.1075 0 10.3475 0C7.58835 0 4.98251 1.07154 3.02749 3.02329C1.07333 4.97507 0 7.53915 0 10.3328C0 13.1264 1.07333 15.6905 3.02749 17.6423C4.98251 19.5557 7.55002 20.6656 10.3475 20.6656C12.6859 20.6656 14.985 19.8619 16.7867 18.4077L21.0409 22.6556C21.2709 22.8852 21.5392 23 21.8451 23C22.1517 23 22.4584 22.8852 22.65 22.6556C23.11 22.1964 23.1101 21.4692 22.6884 21.01ZM18.3959 10.3328C18.3959 12.4759 17.5534 14.5041 16.02 15.9967C14.4867 17.4892 12.4942 18.3694 10.3475 18.3694C8.20169 18.3694 6.17002 17.5274 4.67586 15.9967C3.18085 14.4659 2.29917 12.4759 2.29917 10.3328C2.29917 8.1897 3.14252 6.16136 4.67586 4.66891C6.20835 3.17638 8.16336 2.29617 10.3475 2.29617C12.4942 2.29617 14.525 3.1381 16.02 4.66891C17.5151 6.19969 18.3959 8.15146 18.3959 10.3328Z" fill="#111111"/>
</svg>
