<?xml version="1.0" standalone="no"?>
<!DOCTYPE svg PUBLIC "-//W3C//DTD SVG 20010904//EN"
 "http://www.w3.org/TR/2001/REC-SVG-20010904/DTD/svg10.dtd">
<svg version="1.0" xmlns="http://www.w3.org/2000/svg"
 width="1000.000000pt" height="666.000000pt" viewBox="0 0 1000.000000 666.000000"
 preserveAspectRatio="xMidYMid meet">
<metadata>
Created by potrace 1.16, written by Peter Selinger 2001-2019
</metadata>
<g transform="translate(0.000000,666.000000) scale(0.100000,-0.100000)"
fill="#000000" stroke="none">
<path d="M5874 5343 c-58 -32 -105 -68 -178 -135 -28 -26 -57 -48 -63 -48 -15
0 -17 -11 -5 -26 4 -5 -2 0 -13 12 -11 12 -30 27 -42 33 -29 15 -66 15 -57 -1
4 -7 3 -8 -4 -4 -18 11 -52 -17 -52 -42 0 -13 7 -36 15 -52 18 -34 21 -29 -81
-115 -32 -27 -80 -69 -105 -93 -46 -42 -47 -42 -90 -33 -24 6 -72 11 -107 11
-114 0 -150 -39 -154 -169 -1 -39 -4 -74 -7 -79 -3 -4 -58 -41 -121 -81 -63
-41 -137 -91 -163 -112 -40 -32 -52 -36 -72 -29 -36 14 -112 1 -193 -33 -80
-33 -120 -75 -149 -158 -12 -34 -26 -51 -56 -68 -31 -18 -38 -27 -35 -46 4
-20 -4 -28 -61 -56 -36 -18 -73 -39 -81 -46 -100 -85 -83 -78 -199 -78 -68 0
-114 -5 -129 -13 -12 -7 -51 -47 -86 -90 -60 -73 -68 -78 -137 -101 -41 -14
-86 -35 -101 -47 -15 -12 -53 -37 -85 -55 -32 -17 -69 -42 -83 -54 -14 -13
-43 -29 -65 -36 -47 -17 -123 -89 -148 -141 -21 -44 -33 -54 -51 -39 -17 14
-173 51 -218 51 -27 0 -47 -9 -80 -36 -23 -20 -63 -46 -88 -57 -71 -31 -73
-32 -82 -50 -4 -9 -12 -25 -16 -34 -5 -10 -23 -22 -40 -28 -20 -5 -32 -16 -32
-26 0 -11 -11 -20 -28 -24 -18 -4 -33 -16 -40 -33 -9 -21 -10 -22 -6 -3 6 22
4 23 -28 16 -18 -4 -42 -12 -53 -18 -11 -6 -28 -10 -37 -8 -10 1 -18 -3 -18
-8 0 -6 -3 -10 -8 -10 -34 6 -62 -3 -62 -18 0 -14 -2 -15 -9 -4 -5 8 -14 10
-22 5 -8 -4 -21 -9 -29 -9 -8 -1 -23 -2 -32 -3 -10 -1 -18 -10 -19 -19 0 -11
-3 -13 -6 -5 -2 6 -11 12 -18 12 -7 0 -16 -6 -18 -12 -4 -9 -6 -10 -6 -1 -1
12 -64 -2 -201 -44 -30 -9 -64 -17 -75 -17 -12 -1 -22 -11 -26 -26 -5 -18 -7
-20 -8 -6 -1 20 1 20 -121 -8 -57 -13 -152 -37 -260 -66 -68 -18 -166 -39
-235 -51 -38 -6 -86 -20 -105 -29 -46 -23 -103 -80 -119 -117 -6 -15 -25 -34
-42 -42 -19 -8 -37 -27 -45 -47 -19 -45 -19 -243 0 -288 26 -62 133 -196 157
-196 5 0 6 -6 3 -14 -13 -35 174 -176 232 -176 24 0 157 -71 180 -95 12 -13
40 -33 63 -44 22 -12 41 -26 41 -31 0 -6 11 -10 24 -10 13 0 40 -7 59 -15 23
-9 38 -11 42 -5 13 21 90 11 136 -18 24 -16 52 -31 62 -35 9 -3 17 -11 17 -16
0 -5 9 -13 20 -16 12 -4 19 -14 18 -23 -2 -12 11 -21 46 -32 94 -30 70 -40
-96 -40 -283 -1 -954 -27 -944 -37 14 -15 517 -52 1046 -78 622 -31 1078 -31
2290 0 107 3 461 10 785 15 325 6 698 15 830 20 332 14 963 13 1513 -2 366 -9
557 -9 905 1 495 13 802 26 1017 41 203 15 245 20 229 31 -8 5 -149 9 -314 9
-429 -1 -904 11 -874 22 13 5 26 14 30 19 3 6 59 19 125 30 124 20 190 18 209
-8 9 -12 21 -13 75 -3 104 18 192 50 197 71 3 11 24 28 47 39 22 11 48 24 56
29 8 6 42 23 75 40 197 96 250 128 270 163 11 19 30 47 42 62 31 39 36 80 20
158 -13 67 -13 68 9 83 22 14 22 17 9 54 -7 22 -10 42 -7 46 4 4 0 12 -8 18
-8 7 -22 26 -31 42 -13 25 -21 30 -46 28 -30 -3 -33 0 -52 52 -11 30 -31 72
-44 92 -22 35 -60 135 -74 193 -8 34 -29 48 -83 56 -63 9 -70 18 -69 83 3 114
-20 389 -40 487 -11 55 -52 193 -89 305 -38 112 -80 238 -92 279 -13 41 -27
82 -31 90 -24 45 -49 115 -49 135 0 14 -7 25 -18 27 -24 7 -45 80 -46 162 -1
56 3 68 48 146 142 244 158 290 145 417 -10 99 -24 134 -75 191 -35 40 -44 44
-89 45 -35 1 -49 -2 -48 -10 2 -7 -3 -10 -11 -7 -9 3 -35 -17 -66 -50 -45 -46
-58 -70 -86 -153 -27 -77 -34 -114 -34 -175 0 -42 -4 -79 -10 -83 -10 -6 -51
36 -122 125 -75 94 -167 128 -254 95 -53 -20 -80 -54 -127 -155 -82 -176 -108
-245 -126 -334 -35 -173 -117 -298 -221 -337 -85 -32 -137 -40 -199 -30 -150
24 -299 100 -444 227 -53 46 -97 89 -97 93 0 5 65 63 143 129 124 104 147 128
166 173 22 51 22 53 5 98 -47 124 -335 315 -694 461 -30 12 -91 39 -135 60
-44 21 -106 50 -139 66 -84 40 -147 42 -212 7z m152 -169 c13 -18 12 -24 -7
-48 -12 -15 -19 -29 -16 -32 3 -3 16 10 29 30 30 46 53 57 43 19 -5 -23 -4
-25 9 -14 8 7 20 9 27 5 17 -10 -16 -27 -40 -19 -12 4 -21 -2 -29 -20 -10 -21
-16 -24 -39 -19 -43 10 -44 12 -17 51 13 20 21 40 17 44 -10 10 -53 0 -53 -11
0 -13 -40 -53 -47 -46 -9 9 29 59 58 73 31 17 48 13 65 -13z m114 -1 c-1 -18
-19 -35 -29 -28 -9 5 -9 10 0 21 12 15 29 19 29 7z m30 -52 c0 -23 -46 -55
-63 -44 -21 13 -34 11 -33 -5 0 -9 -8 -18 -18 -20 -19 -4 -19 -3 -5 18 15 22
67 51 54 30 -3 -6 3 -10 14 -10 11 0 23 4 26 10 4 6 -1 7 -12 3 -12 -4 -10 1
7 15 31 26 30 26 30 3z m56 -33 c4 -6 3 -8 -4 -5 -14 9 -43 -3 -36 -14 3 -5 0
-9 -5 -9 -17 0 -13 18 7 29 22 14 29 13 38 -1z m46 -5 c27 -24 22 -30 -24 -30
l-43 -1 32 10 c30 10 31 12 15 24 -9 7 -13 14 -8 14 5 0 18 -7 28 -17z m2358
-10 c119 -85 107 -224 -44 -533 -36 -74 -66 -147 -66 -162 0 -15 -3 -28 -7
-28 -5 0 -37 68 -72 151 l-64 151 5 106 c3 59 13 125 21 147 8 22 18 52 21 67
10 46 102 128 143 128 13 0 42 -12 63 -27z m-2490 -29 c0 -14 -3 -14 -15 -4
-8 7 -15 14 -15 16 0 2 7 4 15 4 8 0 15 -7 15 -16z m46 -19 c3 -14 10 -22 15
-19 5 3 9 1 9 -5 0 -5 -9 -9 -19 -8 -11 0 -19 4 -19 7 0 3 -1 7 -2 10 -1 3 -3
13 -5 23 -5 27 14 20 21 -8z m164 15 c0 -5 -10 -10 -22 -9 -22 0 -22 1 -3 9
11 5 21 9 23 9 1 1 2 -3 2 -9z m-230 -10 c0 -5 -2 -10 -4 -10 -3 0 -8 5 -11
10 -3 6 -1 10 4 10 6 0 11 -4 11 -10z m275 4 c13 -5 14 -8 3 -15 -9 -6 -2 -9
20 -9 33 0 77 -33 67 -50 -4 -6 10 -7 33 -4 34 5 42 2 60 -20 12 -16 30 -26
45 -26 14 0 35 -9 48 -20 21 -17 22 -21 9 -30 -11 -7 -18 -5 -26 5 -11 15 -45
20 -57 9 -11 -12 13 -44 33 -44 11 0 20 -7 20 -15 0 -26 -56 -19 -78 10 -14
17 -25 23 -38 18 -12 -4 -15 -3 -10 5 4 8 2 10 -8 6 -27 -10 -57 15 -54 44 2
15 8 26 15 25 7 -2 10 4 7 12 -4 8 -10 15 -14 15 -5 0 -16 3 -26 7 -13 5 -15
3 -9 -8 7 -12 5 -12 -6 -1 -12 11 -12 14 1 22 9 5 19 5 27 -2 10 -8 12 -7 7 6
-3 9 -13 16 -20 16 -27 0 -85 30 -79 40 7 12 8 12 30 4z m-75 -24 c13 -8 13
-10 -2 -10 -9 0 -20 5 -23 10 -8 13 5 13 25 0z m-80 -10 c0 -5 -5 -10 -11 -10
-5 0 -7 5 -4 10 3 6 8 10 11 10 2 0 4 -4 4 -10z m162 -17 c-10 -4 -10 -8 -2
-18 10 -11 7 -12 -13 -2 -30 14 -28 22 5 24 13 0 17 -1 10 -4z m31 -57 c26 -8
11 -26 -23 -26 -28 0 -55 20 -28 20 8 0 6 5 -4 11 -30 17 -20 31 10 15 15 -8
35 -17 45 -20z m315 -76 c11 -18 10 -20 -12 -20 -26 0 -39 -19 -26 -40 11 -17
4 -30 -15 -30 -24 0 -37 37 -24 63 30 57 53 65 77 27z m-703 -78 c-3 -3 -11 0
-18 7 -9 10 -8 11 6 5 10 -3 15 -9 12 -12z m55 -42 c0 -5 -2 -10 -4 -10 -3 0
-8 5 -11 10 -3 6 -1 10 4 10 6 0 11 -4 11 -10z m240 -150 c0 -5 -2 -10 -4 -10
-3 0 -8 5 -11 10 -3 6 -1 10 4 10 6 0 11 -4 11 -10z m96 -87 c-7 -7 -26 7 -26
19 0 6 6 6 15 -2 9 -7 13 -15 11 -17z m-1886 -157 c-10 -10 -25 -12 -45 -8
l-30 6 25 7 c14 4 34 7 45 8 17 1 17 -1 5 -13z m420 -416 c-8 -5 -22 -9 -30
-9 -10 0 -8 3 5 9 27 12 43 12 25 0z m2695 -115 c-34 -28 -54 -33 -34 -9 12
14 44 32 59 33 3 0 -8 -11 -25 -24z m-525 -169 c0 -2 -13 -9 -30 -15 -35 -12
-41 -5 -7 9 25 10 37 12 37 6z m-425 -156 c-3 -5 -12 -10 -18 -10 -7 0 -6 4 3
10 19 12 23 12 15 0z m-70 -30 c-3 -5 -12 -10 -18 -10 -7 0 -6 4 3 10 19 12
23 12 15 0z m-105 -40 c-8 -5 -19 -10 -25 -10 -5 0 -3 5 5 10 8 5 20 10 25 10
6 0 3 -5 -5 -10z m-3420 -9 c0 -5 -7 -11 -15 -15 -15 -5 -20 5 -8 17 9 10 23
9 23 -2z m3340 -21 c-8 -5 -19 -10 -25 -10 -5 0 -3 5 5 10 8 5 20 10 25 10 6
0 3 -5 -5 -10z m-2859 -9 c-8 -5 -20 -22 -27 -38 -9 -21 -13 -23 -13 -9 -1 21
26 56 43 56 6 0 5 -4 -3 -9z m2768 -25 c-2 -2 -15 -9 -29 -15 -24 -11 -24 -11
-6 3 16 13 49 24 35 12z m-3705 -65 c6 -10 -16 -21 -41 -21 -13 0 -13 3 -3 15
14 17 36 20 44 6z m-291 -198 c-3 -7 -6 -13 -8 -13 -2 0 -5 6 -8 13 -3 8 1 14
8 14 7 0 11 -6 8 -14z m-34 -43 c0 -10 -3 -8 -9 5 -12 27 -12 43 0 25 5 -8 9
-22 9 -30z m18 -2 c-3 -8 -6 -5 -6 6 -1 11 2 17 5 13 3 -3 4 -12 1 -19z m40 0
c-3 -8 -6 -5 -6 6 -1 11 2 17 5 13 3 -3 4 -12 1 -19z m20 0 c-3 -8 -6 -5 -6 6
-1 11 2 17 5 13 3 -3 4 -12 1 -19z m-228 -9 c1 8 3 12 6 10 2 -3 1 -16 -2 -29
-6 -22 -7 -23 -14 -4 -11 27 -10 54 1 29 5 -12 9 -14 9 -6z m-39 0 c0 8 2 12
5 9 3 -3 1 -16 -4 -29 -5 -13 -10 -19 -10 -12 -1 6 -4 20 -7 30 -5 15 -4 15 5
3 9 -12 11 -13 11 -1z m79 -29 c0 -10 -3 -8 -9 5 -12 27 -12 43 0 25 5 -8 9
-22 9 -30z m-222 -2 c-3 -8 -6 -5 -6 6 -1 11 2 17 5 13 3 -3 4 -12 1 -19z m32
-38 c0 -10 -3 -8 -9 5 -12 27 -12 43 0 25 5 -8 9 -22 9 -30z m78 -2 c-3 -8 -6
-5 -6 6 -1 11 2 17 5 13 3 -3 4 -12 1 -19z m-358 -68 c0 -9 -4 -8 -9 5 -5 11
-9 27 -9 35 0 9 4 8 9 -5 5 -11 9 -27 9 -35z m68 28 c-3 -8 -6 -5 -6 6 -1 11
2 17 5 13 3 -3 4 -12 1 -19z m100 0 c-3 -8 -6 -5 -6 6 -1 11 2 17 5 13 3 -3 4
-12 1 -19z m-270 -30 c-3 -8 -6 -5 -6 6 -1 11 2 17 5 13 3 -3 4 -12 1 -19z
m212 -33 c0 -5 -4 -3 -9 5 -5 8 -9 22 -9 30 0 16 17 -16 18 -35z m-357 6 c2
-17 1 -28 -4 -25 -8 5 -12 54 -4 54 2 0 6 -13 8 -29z m55 -13 c-3 -8 -6 -5 -6
6 -1 11 2 17 5 13 3 -3 4 -12 1 -19z m120 0 c-3 -8 -6 -5 -6 6 -1 11 2 17 5
13 3 -3 4 -12 1 -19z m60 -10 c-3 -8 -6 -5 -6 6 -1 11 2 17 5 13 3 -3 4 -12 1
-19z m-350 -10 c-3 -8 -6 -5 -6 6 -1 11 2 17 5 13 3 -3 4 -12 1 -19z m-110
-20 c-3 -8 -6 -5 -6 6 -1 11 2 17 5 13 3 -3 4 -12 1 -19z m330 0 c-3 -8 -6 -5
-6 6 -1 11 2 17 5 13 3 -3 4 -12 1 -19z m60 0 c-3 -8 -6 -5 -6 6 -1 11 2 17 5
13 3 -3 4 -12 1 -19z m-460 -20 c-3 -8 -6 -5 -6 6 -1 11 2 17 5 13 3 -3 4 -12
1 -19z m210 -10 c-3 -8 -6 -5 -6 6 -1 11 2 17 5 13 3 -3 4 -12 1 -19z m40 0
c-3 -8 -6 -5 -6 6 -1 11 2 17 5 13 3 -3 4 -12 1 -19z m-450 -30 c-3 -8 -6 -5
-6 6 -1 11 2 17 5 13 3 -3 4 -12 1 -19z m300 0 c-3 -8 -6 -5 -6 6 -1 11 2 17
5 13 3 -3 4 -12 1 -19z m-70 -30 c-3 -8 -6 -5 -6 6 -1 11 2 17 5 13 3 -3 4
-12 1 -19z m-208 -73 c0 -5 -4 -3 -9 5 -5 8 -9 22 -9 30 0 16 17 -16 18 -35z
m5694 18 c9 -4 -73 -9 -194 -10 -132 -1 -208 1 -204 7 4 6 1 10 -4 10 -6 0
-11 -5 -11 -11 0 -7 -14 -10 -35 -7 -19 2 -35 1 -35 -3 0 -4 -25 -10 -57 -14
-31 -4 -62 -9 -70 -12 -7 -3 -13 -1 -13 5 0 5 28 13 62 16 35 4 67 11 73 16 5
4 24 10 40 12 61 6 434 0 448 -9z m54 -9 c-3 -3 -12 -4 -19 -1 -8 3 -5 6 6 6
11 1 17 -2 13 -5z m-688 -28 c-10 -9 -79 -14 -74 -5 4 5 22 9 42 9 20 0 34 -2
32 -4z m-5342 -128 c-3 -8 -6 -5 -6 6 -1 11 2 17 5 13 3 -3 4 -12 1 -19z
m7333 -42 c0 -2 -7 -7 -16 -10 -8 -3 -12 -2 -9 4 6 10 25 14 25 6z m-55 -26
c-3 -5 -12 -10 -18 -10 -7 0 -6 4 3 10 19 12 23 12 15 0z m-7139 -412 l19 -23
-25 20 c-14 11 -27 21 -29 22 -2 2 0 3 6 3 5 0 18 -10 29 -22z m2069 -149 c5
-5 -6 -4 -25 2 -45 15 -54 24 -15 15 17 -4 34 -12 40 -17z m-658 -105 c-3 -3
-12 -4 -19 -1 -8 3 -5 6 6 6 11 1 17 -2 13 -5z m2833 -239 c69 0 288 2 487 4
199 1 369 -1 377 -6 10 -5 -32 -7 -107 -5 -68 2 -222 -1 -343 -8 -120 -7 -257
-14 -304 -16 -47 -1 -98 -5 -115 -8 -27 -5 -453 -10 -535 -6 l-35 1 43 14 c24
7 116 19 205 25 89 6 164 14 166 16 3 3 12 1 20 -3 9 -4 72 -8 141 -8z m-3069
-6 c11 -5 17 -14 14 -20 -8 -12 -92 -12 -100 1 -3 6 5 10 19 10 14 0 28 5 31
10 8 13 12 12 36 -1z m4586 -16 c-20 -2 -52 -2 -70 0 -17 2 0 4 38 4 39 0 53
-2 32 -4z m301 0 c-16 -2 -40 -2 -55 0 -16 2 -3 4 27 4 30 0 43 -2 28 -4z
m-5071 -9 c-3 -3 -12 -4 -19 -1 -8 3 -5 6 6 6 11 1 17 -2 13 -5z"/>
<path d="M6501 4922 c-12 -22 -2 -35 38 -47 20 -6 23 -5 17 11 -4 10 -1 21 6
26 11 6 10 8 0 8 -8 0 -10 5 -6 13 6 9 5 9 -7 0 -11 -9 -19 -9 -26 -2 -8 8
-14 6 -22 -9z"/>
</g>
</svg>
