<?xml version="1.0" standalone="no"?>
<!DOCTYPE svg PUBLIC "-//W3C//DTD SVG 20010904//EN"
 "http://www.w3.org/TR/2001/REC-SVG-20010904/DTD/svg10.dtd">
<svg version="1.0" xmlns="http://www.w3.org/2000/svg"
 width="1000.000000pt" height="666.000000pt" viewBox="0 0 1000.000000 666.000000"
 preserveAspectRatio="xMidYMid meet">
<metadata>
Created by potrace 1.16, written by Peter Selinger 2001-2019
</metadata>
<g transform="translate(0.000000,666.000000) scale(0.100000,-0.100000)"
fill="#000000" stroke="none">
<path d="M6228 5450 c-32 -4 -59 -16 -85 -38 -21 -18 -68 -53 -105 -78 -38
-25 -68 -50 -68 -55 0 -15 10 -11 42 16 28 24 68 34 68 17 0 -15 -60 -76 -67
-69 -3 4 4 18 17 32 32 34 16 31 -30 -5 -41 -32 -60 -40 -40 -15 24 29 -9 15
-83 -35 -41 -27 -77 -50 -81 -50 -3 0 -24 12 -45 26 -44 29 -68 24 -96 -20
-13 -20 -13 -28 -1 -63 l14 -41 -46 -33 c-26 -19 -86 -66 -133 -106 l-87 -72
-126 -4 c-117 -3 -128 -5 -152 -28 -27 -25 -63 -90 -83 -149 -10 -31 -29 -46
-156 -121 l-144 -87 -22 21 c-20 18 -26 19 -78 8 -75 -15 -65 -11 -159 -60
-85 -45 -145 -105 -159 -159 -3 -14 -23 -41 -45 -60 -25 -22 -38 -42 -35 -52
3 -13 -14 -27 -62 -54 -36 -20 -78 -45 -92 -54 -39 -25 -123 -85 -129 -91 -3
-3 -52 -6 -110 -7 -136 -1 -165 -14 -227 -103 -26 -36 -56 -77 -67 -90 -24
-26 -131 -85 -160 -87 -11 -1 -24 -8 -30 -16 -24 -31 -91 -62 -141 -65 -118
-7 -171 -38 -207 -119 -15 -35 -26 -45 -65 -59 -50 -18 -60 -19 -133 -11 -25
2 -78 7 -117 12 -72 7 -73 7 -128 -30 -30 -20 -80 -46 -110 -57 -40 -15 -55
-26 -55 -39 0 -20 -33 -44 -60 -45 -8 0 -18 -13 -21 -30 -4 -16 -7 -25 -8 -19
0 6 -11 10 -23 9 -22 -2 -42 -38 -32 -58 3 -7 -2 -3 -10 7 -9 11 -22 21 -30
22 -12 2 -13 -3 -5 -23 14 -37 10 -42 -7 -10 -13 24 -18 26 -31 15 -9 -7 -18
-12 -20 -10 -11 8 -24 0 -19 -14 3 -8 2 -12 -4 -9 -6 3 -10 14 -11 23 0 14 -2
13 -9 -3 -6 -14 -9 -15 -10 -5 0 10 -6 6 -16 -10 l-15 -25 6 25 6 25 -14 -24
c-11 -18 -16 -20 -20 -10 -4 9 -6 7 -6 -6 -1 -17 -3 -17 -11 -5 -9 13 -10 13
-11 0 0 -10 -3 -8 -9 5 -7 15 -9 16 -9 4 -1 -12 -9 -16 -31 -14 -25 2 -31 -2
-37 -23 -6 -25 -6 -25 -14 -4 -10 26 -29 29 -29 5 0 -15 -2 -16 -10 -3 -8 12
-10 12 -10 -5 0 -15 -2 -17 -9 -6 -7 11 -10 10 -14 -5 -4 -16 -5 -17 -6 -1 0
9 -7 17 -15 17 -15 0 -46 -26 -46 -39 0 -4 -7 -8 -15 -8 -20 0 -19 7 3 23 16
13 16 13 -1 14 -10 0 -22 -10 -27 -22 -5 -13 -9 -17 -9 -10 -2 29 -72 6 -84
-28 -4 -12 -6 -11 -6 3 -1 28 -50 17 -52 -12 0 -10 -2 -11 -6 -3 -2 6 -15 12
-27 12 -24 0 -291 -66 -307 -76 -5 -3 -10 -15 -10 -27 -1 -17 -2 -18 -6 -4 -2
9 -10 17 -17 17 -12 0 -188 -73 -294 -121 -52 -24 -118 -82 -139 -123 -9 -17
-20 -34 -26 -38 -18 -11 39 -208 70 -240 71 -75 267 -132 738 -217 398 -72
1094 -105 1675 -80 96 4 238 10 315 13 77 4 167 9 200 11 95 9 357 36 393 41
l33 5 -51 52 c-197 201 -165 528 94 957 62 103 111 172 150 213 38 39 51 43
76 27 13 -8 13 -15 -2 -58 -63 -177 -41 -349 60 -462 101 -114 257 -151 482
-115 93 16 555 164 850 273 183 68 563 215 625 242 56 24 396 158 435 170 14
5 56 20 94 33 l70 24 43 -19 c42 -19 147 -41 236 -50 18 -2 17 -4 -2 -19 -12
-10 -117 -67 -234 -127 -116 -60 -329 -176 -472 -257 -143 -81 -334 -188 -424
-237 -151 -82 -569 -290 -668 -333 -46 -19 -59 -41 -20 -31 13 3 107 19 208
35 101 17 220 37 264 45 149 28 518 56 725 56 96 0 120 -3 147 -19 40 -25 182
-38 503 -46 260 -7 997 9 1185 26 206 18 515 72 515 89 0 33 -13 40 -69 35
-31 -3 -50 -3 -44 1 9 4 6 14 -10 35 -17 24 -22 45 -23 97 -2 119 -22 355 -38
443 -15 85 -52 196 -138 424 -26 66 -56 151 -68 190 -13 38 -36 92 -51 120
-51 89 -69 136 -69 180 0 62 34 228 64 312 14 39 26 79 26 90 0 11 11 55 25
97 42 127 33 251 -22 309 -59 61 -126 77 -205 47 -83 -31 -110 -67 -137 -182
-19 -78 -22 -110 -16 -170 l7 -73 -27 25 c-15 14 -48 56 -72 93 -64 96 -117
118 -193 79 -42 -21 -127 -131 -180 -233 -37 -72 -90 -244 -90 -295 0 -47 -70
-175 -129 -234 -103 -105 -227 -129 -379 -74 -89 32 -101 39 -202 115 -74 57
-398 375 -390 382 3 2 57 46 120 96 122 98 231 200 285 266 56 68 84 166 66
233 -28 101 -113 181 -275 257 -220 104 -460 157 -618 135z m-60 -120 c-7 -11
-16 -20 -20 -20 -5 0 -8 -5 -8 -11 0 -7 10 -5 26 6 32 20 47 11 16 -11 -12 -8
-22 -24 -22 -35 0 -10 -7 -19 -15 -19 -9 0 -12 6 -9 15 8 20 -15 19 -38 -2
-35 -32 -17 3 26 50 46 49 65 61 44 27z m-48 -7 c-1 -12 -70 -88 -70 -77 0 10
58 84 66 84 2 0 4 -3 4 -7z m177 -29 c2 -6 -8 -16 -22 -22 -36 -17 -54 -14
-31 3 15 11 16 15 5 15 -18 0 -39 -20 -39 -37 0 -7 11 -13 25 -13 14 0 25 -4
25 -10 0 -11 -39 -13 -64 -4 -45 17 13 87 68 82 16 -2 31 -8 33 -14z m107 -20
c26 -10 18 -24 -15 -24 -21 0 -39 -9 -59 -32 -21 -22 -33 -29 -40 -22 -7 7 -4
19 11 38 30 38 69 53 103 40z m81 -38 c27 -19 13 -46 -25 -46 -30 0 -40 14
-17 24 6 3 3 5 -8 3 -29 -3 -27 -41 3 -45 31 -5 29 -32 -3 -32 -25 0 -65 31
-65 50 0 20 49 60 73 60 13 0 32 -6 42 -14z m112 -58 c10 -13 30 -24 46 -24
16 -1 37 -10 48 -20 29 -26 4 -35 -39 -12 -37 18 -37 18 -40 -2 -5 -32 5 -50
27 -50 26 0 37 -18 16 -26 -22 -9 -66 12 -72 34 -3 14 -12 17 -34 14 -59 -9
-93 60 -47 92 32 23 73 20 95 -6z m158 -67 c-3 -5 0 -13 6 -16 7 -5 2 -12 -13
-19 -19 -10 -23 -19 -21 -49 2 -38 -5 -45 -25 -25 -28 28 2 118 39 118 11 0
18 -4 14 -9z m1803 -105 c50 -26 84 -72 98 -133 22 -92 9 -173 -71 -428 -24
-77 -47 -156 -52 -175 l-9 -35 -31 60 c-17 33 -45 103 -63 155 -18 52 -36 100
-40 105 -5 6 -18 43 -30 84 -39 127 -9 267 72 344 44 41 80 47 126 23z m-3861
-541 c2 -6 -14 -28 -35 -51 l-38 -40 -95 3 c-51 3 -95 6 -97 8 -2 2 18 15 44
28 27 14 67 34 89 46 42 22 125 26 132 6z m-497 -400 c0 -2 -10 -9 -22 -15
-22 -11 -22 -10 -4 4 21 17 26 19 26 11z m3520 -339 c0 -2 -69 -55 -152 -118
l-153 -113 -78 2 c-82 1 -165 17 -207 39 l-25 12 30 12 c57 22 420 128 480
140 33 7 67 16 75 21 16 9 30 11 30 5z m-5120 -386 c-17 -11 -40 -13 -40 -4 0
15 35 32 45 23 6 -7 5 -13 -5 -19z m-306 -156 c3 -8 2 -12 -4 -9 -6 3 -10 10
-10 16 0 14 7 11 14 -7z m-174 -89 c0 -5 -5 -3 -10 5 -5 8 -10 20 -10 25 0 6
5 3 10 -5 5 -8 10 -19 10 -25z m-83 -17 c-3 -8 -6 -5 -6 6 -1 11 2 17 5 13 3
-3 4 -12 1 -19z m-202 -17 c-3 -6 -11 -8 -17 -5 -6 4 -5 9 3 15 16 10 23 4 14
-10z m-105 -21 c0 -5 -7 -10 -15 -10 -8 0 -15 -6 -15 -12 0 -9 -3 -9 -9 1 -7
11 -10 8 -14 -12 l-4 -27 1 27 c1 20 8 29 26 34 14 4 26 7 28 8 1 1 2 -3 2 -9z
m-93 -42 c-3 -7 -5 -2 -5 12 0 14 2 19 5 13 2 -7 2 -19 0 -25z m-20 0 c-3 -8
-6 -5 -6 6 -1 11 2 17 5 13 3 -3 4 -12 1 -19z m100 0 c-3 -8 -6 -5 -6 6 -1 11
2 17 5 13 3 -3 4 -12 1 -19z m-157 2 c0 -5 -15 -10 -32 -9 -31 1 -32 1 -8 9
35 11 40 11 40 0z m-76 -17 c-5 -5 -12 -12 -16 -18 -4 -6 -8 -2 -8 8 0 9 7 17
17 17 9 0 12 -3 7 -7z m-57 -25 c-3 -8 -6 -5 -6 6 -1 11 2 17 5 13 3 -3 4 -12
1 -19z m-37 2 c0 -5 -4 -10 -10 -10 -5 0 -10 5 -10 10 0 6 5 10 10 10 6 0 10
-4 10 -10z"/>
<path d="M6523 5159 c-18 -18 -3 -39 28 -39 30 0 34 6 23 34 -7 19 -35 21 -51
5z"/>
<path d="M5385 2445 c-33 -7 -76 -18 -95 -24 -34 -10 -34 -10 10 -5 48 6 162
33 169 40 7 7 -21 3 -84 -11z"/>
<path d="M8053 2419 c-105 -20 -174 -94 -176 -188 -3 -100 56 -211 135 -253
65 -34 152 -31 215 8 64 39 89 86 97 180 5 64 3 83 -15 124 -11 26 -32 59 -47
73 -50 48 -135 71 -209 56z"/>
<path d="M5208 2403 c6 -2 18 -2 25 0 6 3 1 5 -13 5 -14 0 -19 -2 -12 -5z"/>
<path d="M5158 2393 c7 -3 16 -2 19 1 4 3 -2 6 -13 5 -11 0 -14 -3 -6 -6z"/>
<path d="M5118 2383 c7 -3 16 -2 19 1 4 3 -2 6 -13 5 -11 0 -14 -3 -6 -6z"/>
<path d="M5040 2370 c-20 -6 -21 -8 -5 -8 11 0 31 4 45 8 20 6 21 8 5 8 -11 0
-31 -4 -45 -8z"/>
<path d="M4988 2353 c7 -3 16 -2 19 1 4 3 -2 6 -13 5 -11 0 -14 -3 -6 -6z"/>
<path d="M9210 2344 c0 -17 45 -146 68 -190 11 -22 30 -69 42 -105 11 -35 23
-70 26 -78 2 -8 7 -12 9 -9 3 3 -4 36 -16 74 -12 39 -17 70 -11 72 5 1 17 8
26 15 16 12 16 16 -1 62 -25 69 -58 130 -69 128 -5 -1 -17 -4 -26 -8 -12 -5
-21 2 -32 22 -8 15 -15 23 -16 17z"/>
<path d="M4820 2320 c-20 -6 -21 -8 -5 -8 11 0 31 4 45 8 20 6 21 8 5 8 -11 0
-31 -4 -45 -8z"/>
<path d="M681 2304 c-1 -16 29 -87 35 -82 2 3 -4 25 -15 49 -11 24 -20 39 -20
33z"/>
<path d="M8647 2269 c-82 -19 -149 -68 -173 -125 -27 -65 -18 -112 70 -359 56
-156 25 -251 -94 -287 -8 -3 9 -7 39 -11 29 -3 59 -12 67 -18 35 -29 279 29
279 66 0 10 7 21 15 23 46 15 61 23 55 31 -3 6 -20 4 -42 -5 -44 -19 -56 -9
-43 36 6 19 24 100 41 180 24 114 30 166 28 248 -2 113 -6 145 -20 136 -5 -3
-9 1 -9 9 0 17 -35 50 -77 71 -35 17 -77 19 -136 5z"/>
<path d="M820 2152 c0 -21 34 -74 67 -104 20 -18 44 -41 54 -50 11 -10 21 -18
24 -18 3 0 23 -11 45 -25 49 -31 76 -33 36 -2 -43 31 -77 66 -111 112 -48 66
-78 95 -97 95 -10 0 -18 -4 -18 -8z"/>
<path d="M6956 2113 c-27 -15 -62 -44 -78 -64 -56 -70 -47 -197 20 -265 42
-43 157 -91 254 -108 48 -8 106 -25 130 -38 106 -58 117 -177 19 -217 -25 -11
-41 -9 -103 8 -146 42 -501 53 -593 18 -38 -15 -29 -16 171 -16 116 -1 214 -4
218 -8 4 -5 -46 -15 -111 -23 -99 -13 -281 -15 -1123 -13 -604 1 -1089 6
-1215 13 -126 7 -312 9 -465 5 -216 -6 -265 -4 -317 9 -68 18 -185 20 -253 5
-101 -22 -116 -22 -156 -1 -78 40 -106 81 -164 240 -29 81 -63 163 -76 183
-41 66 -134 117 -228 126 -120 11 -207 -29 -241 -110 -46 -111 19 -214 194
-308 56 -29 88 -53 98 -73 25 -48 8 -53 -115 -32 -59 10 -146 20 -193 22 -48
1 -96 8 -107 15 -36 22 -53 67 -63 162 -10 102 -23 149 -50 188 -21 30 -85 59
-129 59 -43 0 -104 -27 -133 -59 -35 -40 -67 -132 -67 -196 0 -36 -5 -59 -16
-70 -9 -8 -14 -22 -11 -30 6 -13 134 -58 146 -50 4 2 28 -1 55 -6 39 -7 53 -6
66 6 15 13 23 13 75 -5 32 -11 80 -20 107 -20 50 0 69 -19 21 -21 -93 -2 -139
-10 -174 -28 -22 -12 -43 -20 -47 -20 -34 5 -62 -3 -62 -18 0 -15 -2 -16 -10
-3 -9 13 -11 13 -20 0 -6 -10 -10 -11 -10 -2 0 6 -7 12 -15 12 -8 0 -15 -6
-15 -14 0 -11 22 -16 88 -22 101 -9 2084 -11 3167 -4 712 5 957 2 2030 -21
270 -6 612 -8 760 -5 149 3 335 7 415 7 88 1 133 4 115 9 -16 4 -23 8 -16 9 9
1 11 4 5 9 -17 16 -179 34 -332 38 -85 2 -163 6 -174 10 -12 3 -18 2 -15 -3 4
-6 -4 -8 -18 -5 -31 6 -33 30 -3 34 13 2 24 11 26 21 3 13 -4 17 -32 17 -84 0
-110 34 -156 200 -36 132 -55 167 -107 203 -61 41 -113 51 -180 32 -110 -31
-128 -35 -168 -35 -53 0 -85 18 -209 122 -123 104 -209 148 -299 155 -54 3
-68 0 -111 -24z m179 -395 c63 -16 124 -39 130 -48 2 -4 -19 1 -48 11 -28 10
-95 30 -147 44 -52 14 -99 30 -104 35 -4 5 23 0 60 -11 38 -11 87 -25 109 -31z"/>
<path d="M9128 2038 c-36 -30 -49 -137 -26 -223 9 -33 9 -56 2 -84 -10 -38
-10 -39 10 -28 12 7 23 14 26 17 3 3 27 18 53 34 27 15 57 42 68 59 23 39 26
125 4 167 -30 57 -100 87 -137 58z"/>
<path d="M1277 1815 c3 -9 20 -23 37 -32 17 -8 41 -25 54 -36 12 -11 22 -17
22 -14 0 4 18 -2 41 -13 28 -15 50 -19 70 -15 40 9 36 20 -13 34 -24 7 -59 21
-78 32 -34 18 -128 59 -136 59 -2 0 -1 -7 3 -15z"/>
<path d="M1615 1671 c-3 -7 3 -11 15 -11 11 0 23 -7 26 -15 4 -8 15 -15 25
-15 12 0 19 -7 19 -19 0 -19 43 -41 81 -41 11 0 19 -4 19 -10 0 -5 12 -10 28
-10 15 0 45 -5 66 -11 34 -9 42 -8 52 5 6 9 20 15 30 14 11 -2 20 2 22 7 1 6
-22 16 -50 23 -29 7 -100 28 -158 47 -131 42 -166 49 -175 36z"/>
<path d="M4811 1471 c-34 -8 -60 -15 -59 -16 7 -7 197 9 193 15 -9 15 -74 16
-134 1z"/>
<path d="M5640 1478 c-176 -12 -147 -23 60 -23 109 0 196 3 192 7 -14 14 -156
23 -252 16z"/>
<path d="M8408 1483 c7 -3 16 -2 19 1 4 3 -2 6 -13 5 -11 0 -14 -3 -6 -6z"/>
<path d="M8328 1473 c7 -3 16 -2 19 1 4 3 -2 6 -13 5 -11 0 -14 -3 -6 -6z"/>
<path d="M8268 1463 c6 -2 18 -2 25 0 6 3 1 5 -13 5 -14 0 -19 -2 -12 -5z"/>
<path d="M2140 1365 c0 -8 5 -15 10 -15 6 0 10 7 10 15 0 8 -4 15 -10 15 -5 0
-10 -7 -10 -15z"/>
</g>
</svg>
