<svg width="26" height="26" viewBox="0 0 26 26" fill="none" xmlns="http://www.w3.org/2000/svg">
<path fill-rule="evenodd" clip-rule="evenodd" d="M13 0C5.8203 0 0 5.8203 0 13C0 20.1797 5.8203 26 13 26C20.1797 26 26 20.1797 26 13C26 5.8203 20.1797 0 13 0ZM12.3404 11.0927L12.3122 10.6602C12.2277 9.53911 12.9698 8.51517 14.1439 8.11795C14.576 7.97672 15.3087 7.95906 15.7877 8.08264C15.9756 8.1356 16.3325 8.31215 16.5862 8.47103L17.0464 8.76233L17.5537 8.61227C17.8355 8.53282 18.2112 8.40042 18.3803 8.31215C18.5399 8.2327 18.6808 8.18857 18.6808 8.21505C18.6808 8.36511 18.3333 8.87708 18.0421 9.15955C17.6476 9.55677 17.7603 9.59208 18.5587 9.32726C19.0378 9.1772 19.0472 9.1772 18.9532 9.34492C18.8969 9.43319 18.6057 9.74214 18.2957 10.0246C17.7697 10.5101 17.7415 10.5631 17.7415 10.9691C17.7415 11.5958 17.4222 12.9022 17.1028 13.6172C16.511 14.959 15.2429 16.3448 13.9748 17.0422C12.1901 18.022 9.81365 18.2691 7.81289 17.6954C7.14597 17.5012 6 17.0068 6 16.9186C6 16.8921 6.34755 16.8568 6.77024 16.848C7.65321 16.8303 8.53617 16.6008 9.28763 16.1948L9.79486 15.9123L9.21248 15.7269C8.38588 15.4621 7.64381 14.853 7.45595 14.2793C7.39959 14.0939 7.41838 14.0851 7.9444 14.0851L8.4892 14.0762L8.02893 13.8732C7.48413 13.6172 6.98629 13.1847 6.74206 12.7434C6.56359 12.4256 6.33816 11.6223 6.40391 11.5605C6.42269 11.534 6.61995 11.587 6.84539 11.6576C7.49352 11.8783 7.57806 11.8253 7.20233 11.4546C6.49784 10.7837 6.2818 9.78627 6.61995 8.84177L6.77964 8.41807L7.39959 8.99183C8.66767 10.1482 10.1612 10.8367 11.8708 11.0397L12.3404 11.0927Z" fill="#111111"/>
</svg>
